<svg viewBox="0 0 296 71" xmlns="http://www.w3.org/2000/svg">
	<path d="M57.4 70.7C52.6 70.7 47.4333 69.9 41.9 68.3C39.9667 67.7 38.0667 67.0333 36.2 66.3C34.3333 65.5667 32.4667 64.8 30.6 64C28.2 65.8 25.2667 67.3 21.8 68.5C18.3333 69.7 15.0333 70.3 11.9 70.3C7.83333 70.3 4.86667 69.4 3 67.6C1.2 65.8 0.300001 63.8 0.300001 61.6C0.300001 59.3333 1.2 57.2333 3 55.3C4.8 53.3667 7.26667 52.4 10.4 52.4C12.9333 52.4 15.5333 53.0333 18.2 54.3C20.8667 55.5667 23.3667 56.7333 25.7 57.8C26.3667 58.1333 27.0667 58.4667 27.8 58.8C28.5333 59.1333 29.2667 59.4667 30 59.8C32.2 57.8667 34.5667 55.3 37.1 52.1C39.6333 48.9 42.2667 45.3667 45 41.5C47.7333 37.6333 50.5 33.7 53.3 29.7C56.1667 25.7 59.0333 21.8667 61.9 18.2C64.7667 14.5333 67.6333 11.3333 70.5 8.6C68.5 7.8 66.3667 7.2 64.1 6.8C61.8333 6.33333 59.4 6.1 56.8 6.1C49.8 6.1 43.7333 6.8 38.6 8.2C33.5333 9.53333 29.2667 11.3 25.8 13.5C22.4 15.7 19.7 18.0667 17.7 20.6C15.7667 23.0667 14.4333 25.4 13.7 27.6C13.4333 28.4667 13.2333 29.2667 13.1 30C12.9667 30.6667 12.9 31.3333 12.9 32C12.9 34.2667 13.6 35.9667 15 37.1C16.4 38.2333 18.2 38.8 20.4 38.8C22.6667 38.8 25.2 38.1667 28 36.9C30.8 35.6333 33.6667 33.6667 36.6 31C39.5333 28.2667 42.2333 24.7 44.7 20.3C45.0333 19.7 45.5333 19.4 46.2 19.4C46.7333 19.4 47.1667 19.5667 47.5 19.9C47.9 20.1667 48.1 20.5667 48.1 21.1C48.1 21.4333 48 21.7667 47.8 22.1C45.1333 26.7667 42.1667 30.6 38.9 33.6C35.7 36.6 32.4667 38.8333 29.2 40.3C26 41.7 23 42.4 20.2 42.4C17.0667 42.4 14.4667 41.5333 12.4 39.8C10.3333 38 9.3 35.4667 9.3 32.2C9.3 30.4 9.63333 28.5 10.3 26.5C11.1667 23.7667 12.7 21 14.9 18.2C17.1667 15.4 20.1667 12.8333 23.9 10.5C27.7 8.1 32.3 6.16666 37.7 4.7C43.1667 3.23333 49.5333 2.5 56.8 2.5C60 2.5 62.9667 2.8 65.7 3.39999C68.5 3.99999 71.0667 4.83333 73.4 5.9C75.4 4.16666 77.3667 2.8 79.3 1.8C81.3 0.799998 83.2 0.299999 85 0.299999C85.6 0.299999 86.0333 0.499998 86.3 0.899997C86.5667 1.23333 86.7 1.63333 86.7 2.1C86.7 2.56666 86.5667 3 86.3 3.39999C86.0333 3.73333 85.6 3.9 85 3.9C82.8667 3.9 80.1333 5.16667 76.8 7.7C82.0667 10.9 86 15.1667 88.6 20.5C91.2667 25.8333 92.6 31.3333 92.6 37C92.6 42.2667 91.5333 47.2333 89.4 51.9C86.9333 57.4333 82.9 61.9333 77.3 65.4C71.7 68.9333 65.0667 70.7 57.4 70.7ZM43 64.9C48 66.3667 52.7667 67.1 57.3 67.1C64.4333 67.1 70.4667 65.5333 75.4 62.4C80.4 59.2 84 55.1667 86.2 50.3C88.1333 46.1 89.1 41.6667 89.1 37C89.1 31.7333 87.8333 26.6667 85.3 21.8C82.7667 16.8667 78.9667 13 73.9 10.2C71.8333 12 69.7333 14.1333 67.6 16.6C65.5333 19.0667 63.5 21.7333 61.5 24.6C60.0333 26.7333 58.1667 29.4333 55.9 32.7C53.6333 35.9 51.2 39.3333 48.6 43C46 46.6 43.3667 50.0333 40.7 53.3C38.1 56.5667 35.7333 59.2667 33.6 61.4C35.1333 62.0667 36.6667 62.7 38.2 63.3C39.8 63.9 41.4 64.4333 43 64.9ZM3.9 61.5C3.9 62.7667 4.5 63.9333 5.7 65C6.96667 66.1333 9 66.7 11.8 66.7C14.2 66.7 16.7667 66.3 19.5 65.5C22.2333 64.7 24.6667 63.6333 26.8 62.3C25.2 61.5667 23.6 60.8333 22 60.1C20.4 59.3667 18.7667 58.6333 17.1 57.9C16.1 57.4333 15.2333 57.0667 14.5 56.8C13.7667 56.4667 13.1333 56.2667 12.6 56.2C12.2667 56.0667 11.9333 56 11.6 56C11.2667 56 10.9333 56 10.6 56C8.53333 56 6.9 56.6 5.7 57.8C4.5 58.9333 3.9 60.1667 3.9 61.5ZM105.792 66.5C103.726 66.5 101.959 65.8667 100.492 64.6C99.0922 63.3333 98.3922 61.1333 98.3922 58C98.3922 55.8667 98.9255 53.3667 99.9922 50.5C101.126 47.6333 102.626 44.8667 104.492 42.2C106.359 39.4667 108.426 37.2333 110.692 35.5C112.959 33.7 115.259 32.8 117.592 32.8C119.126 32.8 120.259 33.3667 120.992 34.5C121.792 35.5667 122.192 36.8667 122.192 38.4C122.192 40.6667 121.459 42.8667 119.992 45C118.526 47.1333 116.659 48.8667 114.392 50.2C112.192 51.5333 109.992 52.2 107.792 52.2C105.992 52.2 104.626 51.6333 103.692 50.5C103.159 51.8333 102.726 53.1333 102.392 54.4C102.059 55.6667 101.892 56.8667 101.892 58C101.892 59.9333 102.292 61.3 103.092 62.1C103.959 62.8333 105.026 63.2 106.292 63.2C107.826 63.2 109.526 62.8 111.392 62C113.326 61.2 115.126 60.2667 116.792 59.2C118.459 58.0667 119.692 57.1333 120.492 56.4C121.826 55.2667 123.092 54.0333 124.292 52.7C125.559 51.3 126.659 50 127.592 48.8C127.926 48.4 128.292 48.2 128.692 48.2C129.092 48.2 129.426 48.4 129.692 48.8C130.026 49.1333 130.192 49.5667 130.192 50.1C130.192 50.5667 130.026 51.0333 129.692 51.5C128.626 52.8333 127.292 54.3667 125.692 56.1C124.159 57.7667 122.426 59.3333 120.492 60.8C119.426 61.6667 118.059 62.5333 116.392 63.4C114.726 64.2667 112.959 65 111.092 65.6C109.292 66.2 107.526 66.5 105.792 66.5ZM107.592 49C108.926 49 110.359 48.5667 111.892 47.7C113.492 46.8333 114.892 45.7 116.092 44.3C117.359 42.8333 118.192 41.2667 118.592 39.6C118.659 39.4667 118.692 39.3 118.692 39.1C118.692 38.9 118.692 38.7333 118.692 38.6C118.692 37.4 118.259 36.8 117.392 36.8C115.992 36.8 114.526 37.3333 112.992 38.4C111.459 39.4 109.992 40.7667 108.592 42.5C107.259 44.1667 106.059 46 104.992 48C105.259 48.2 105.526 48.4 105.792 48.6C106.059 48.7333 106.326 48.8333 106.592 48.9C106.726 48.9667 106.892 49 107.092 49C107.292 49 107.459 49 107.592 49ZM133.545 65.7C130.745 65.7 128.612 65 127.145 63.6C125.745 62.2 125.045 60.4 125.045 58.2C125.045 55.6667 125.545 53.2667 126.545 51C127.612 48.7333 128.812 46.6333 130.145 44.7C132.079 41.9 134.379 39.5333 137.045 37.6C139.779 35.6 142.612 34.6 145.545 34.6C147.479 34.6 148.812 35.0667 149.545 36C150.279 36.8667 150.645 37.9667 150.645 39.3C150.645 40.7 150.345 42.1667 149.745 43.7C149.145 45.1667 148.479 46.3333 147.745 47.2C147.279 47.7333 146.779 48 146.245 48C145.179 48 144.645 47.5333 144.645 46.6C144.645 46.1333 144.845 45.7 145.245 45.3C145.579 44.9667 145.979 44.2 146.445 43C146.979 41.7333 147.245 40.6333 147.245 39.7C147.245 38.7667 146.945 38.2667 146.345 38.2C146.145 38.1333 145.879 38.1 145.545 38.1C144.212 38.1 142.712 38.6333 141.045 39.7C139.379 40.7 137.779 42.0333 136.245 43.7C134.712 45.3667 133.412 47.1333 132.345 49C131.479 50.4667 130.779 52.0333 130.245 53.7C129.712 55.3667 129.445 56.8 129.445 58C129.445 59.2667 129.812 60.2667 130.545 61C131.345 61.7333 132.479 62.1 133.945 62.1C136.279 62.1 138.712 61.4667 141.245 60.2C143.845 58.9333 145.945 57.6333 147.545 56.3C148.879 55.1667 150.112 54 151.245 52.8C152.379 51.5333 153.445 50.3667 154.445 49.3C154.712 48.9667 155.045 48.8 155.445 48.8C155.779 48.8 156.079 49 156.345 49.4C156.679 49.7333 156.845 50.1667 156.845 50.7C156.845 51.3 156.679 51.8 156.345 52.2C155.279 53.6 153.879 55.1667 152.145 56.9C150.412 58.5667 148.879 59.9 147.545 60.9C145.679 62.2333 143.445 63.3667 140.845 64.3C138.245 65.2333 135.812 65.7 133.545 65.7ZM173.494 33.9C172.694 33.9 171.96 33.6333 171.294 33.1C170.694 32.5 170.394 31.7667 170.394 30.9C170.394 29.9667 170.694 29.2 171.294 28.6C171.894 28 172.627 27.7 173.494 27.7C174.427 27.7 175.194 28 175.794 28.6C176.394 29.2 176.694 29.9667 176.694 30.9C176.694 31.7667 176.36 32.5 175.694 33.1C175.094 33.6333 174.36 33.9 173.494 33.9ZM158.694 63.9C157.827 63.9 157.127 63.6667 156.594 63.2C156.06 62.6667 155.794 61.8333 155.794 60.7C155.794 59.3 156.127 57.6 156.794 55.6C157.46 53.5333 158.327 51.4333 159.394 49.3C160.46 47.1 161.594 45.1 162.794 43.3C164.06 41.4333 165.26 39.9667 166.394 38.9C166.86 38.4333 167.427 38.2 168.094 38.2C168.627 38.2 169.094 38.3333 169.494 38.6C169.894 38.8667 170.094 39.2 170.094 39.6C170.094 39.9333 169.927 40.2667 169.594 40.6C169.127 41.0667 168.527 41.8333 167.794 42.9C167.127 43.9 166.46 44.9667 165.794 46.1C165.127 47.1667 164.627 48.0667 164.294 48.8C163.694 50.0667 163.027 51.5 162.294 53.1C161.56 54.7 161.027 56 160.694 57C160.494 57.6667 160.394 58.1667 160.394 58.5C160.394 59.2333 160.66 59.6 161.194 59.6C161.66 59.6 162.194 59.4 162.794 59C163.394 58.5333 163.927 58.1333 164.394 57.8C166.06 56.4667 167.594 55.0667 168.994 53.6C170.46 52.0667 171.794 50.6333 172.994 49.3C173.26 48.9667 173.594 48.8 173.994 48.8C174.327 48.8 174.627 49 174.894 49.4C175.227 49.7333 175.394 50.1667 175.394 50.7C175.394 51.3 175.227 51.8 174.894 52.2C173.894 53.6 172.494 55.1667 170.694 56.9C168.96 58.5667 167.427 59.9 166.094 60.9C165.227 61.5667 164.06 62.2333 162.594 62.9C161.194 63.5667 159.894 63.9 158.694 63.9ZM178.251 68.3C175.784 68.3 173.917 67.6333 172.651 66.3C171.384 65.0333 170.751 63.8333 170.751 62.7C170.751 61.2333 171.484 60.5 172.951 60.5C173.284 60.5 173.617 60.5333 173.951 60.6C174.284 60.6667 174.651 60.8 175.051 61C176.451 61.6667 177.951 62.1667 179.551 62.5C181.217 62.7667 182.817 62.9333 184.351 63C184.951 62.8667 185.517 62 186.051 60.4C186.584 58.8 186.984 57.2667 187.251 55.8C187.451 54.4 187.551 52.9667 187.551 51.5C187.551 49.3667 187.384 47.2 187.051 45C186.717 42.8 186.417 40.6 186.151 38.4C184.351 40.8 182.451 43.2333 180.451 45.7C178.451 48.1 176.584 50.3 174.851 52.3C173.117 54.3 171.651 55.8333 170.451 56.9C170.184 57.1667 169.851 57.3 169.451 57.3C168.984 57.3 168.584 57.1333 168.251 56.8C167.917 56.4 167.751 55.9667 167.751 55.5C167.751 54.9 167.984 54.4 168.451 54C169.051 53.4 170.017 52.3667 171.351 50.9C172.684 49.4333 174.184 47.7 175.851 45.7C177.584 43.6333 179.317 41.5 181.051 39.3C182.784 37.0333 184.384 34.9 185.851 32.9C185.917 32.2333 185.984 31.6 186.051 31C186.117 30.3333 186.217 29.7 186.351 29.1C186.817 27.0333 187.684 25.4667 188.951 24.4C190.284 23.2667 191.451 22.7 192.451 22.7C193.651 22.7 194.251 23.3333 194.251 24.6C194.251 25.5333 193.751 26.9 192.751 28.7C192.284 29.4333 191.784 30.2333 191.251 31.1C190.717 31.9 190.117 32.7667 189.451 33.7C189.451 36.2333 189.684 38.8667 190.151 41.6C190.617 44.2667 190.884 46.2667 190.951 47.6C191.017 48.2667 191.051 48.9333 191.051 49.6C191.117 50.2667 191.151 50.9667 191.151 51.7C191.151 53.5667 190.984 55.4333 190.651 57.3C190.384 59.1667 189.817 60.8667 188.951 62.4C190.751 61.7333 192.617 60.8667 194.551 59.8C196.484 58.6667 198.151 57.4667 199.551 56.2C200.884 55.0667 202.117 53.8667 203.251 52.6C204.384 51.3333 205.451 50.1667 206.451 49.1C206.717 48.7667 207.051 48.6 207.451 48.6C207.784 48.6 208.084 48.8 208.351 49.2C208.684 49.5333 208.851 49.9667 208.851 50.5C208.851 51.1 208.684 51.6 208.351 52C207.351 53.4 205.951 54.9667 204.151 56.7C202.417 58.3667 200.884 59.7 199.551 60.7C197.817 61.9667 195.684 63.1 193.151 64.1C190.617 65.1 188.017 65.8333 185.351 66.3C184.017 67.1 182.451 67.7 180.651 68.1C180.184 68.1667 179.751 68.2 179.351 68.2C178.951 68.2667 178.584 68.3 178.251 68.3ZM225.447 33.9C224.647 33.9 223.914 33.6333 223.247 33.1C222.647 32.5 222.347 31.7667 222.347 30.9C222.347 29.9667 222.647 29.2 223.247 28.6C223.847 28 224.58 27.7 225.447 27.7C226.38 27.7 227.147 28 227.747 28.6C228.347 29.2 228.647 29.9667 228.647 30.9C228.647 31.7667 228.314 32.5 227.647 33.1C227.047 33.6333 226.314 33.9 225.447 33.9ZM210.647 63.9C209.78 63.9 209.08 63.6667 208.547 63.2C208.014 62.6667 207.747 61.8333 207.747 60.7C207.747 59.3 208.08 57.6 208.747 55.6C209.414 53.5333 210.28 51.4333 211.347 49.3C212.414 47.1 213.547 45.1 214.747 43.3C216.014 41.4333 217.214 39.9667 218.347 38.9C218.814 38.4333 219.38 38.2 220.047 38.2C220.58 38.2 221.047 38.3333 221.447 38.6C221.847 38.8667 222.047 39.2 222.047 39.6C222.047 39.9333 221.88 40.2667 221.547 40.6C221.08 41.0667 220.48 41.8333 219.747 42.9C219.08 43.9 218.414 44.9667 217.747 46.1C217.08 47.1667 216.58 48.0667 216.247 48.8C215.647 50.0667 214.98 51.5 214.247 53.1C213.514 54.7 212.98 56 212.647 57C212.447 57.6667 212.347 58.1667 212.347 58.5C212.347 59.2333 212.614 59.6 213.147 59.6C213.614 59.6 214.147 59.4 214.747 59C215.347 58.5333 215.88 58.1333 216.347 57.8C218.014 56.4667 219.547 55.0667 220.947 53.6C222.414 52.0667 223.747 50.6333 224.947 49.3C225.214 48.9667 225.547 48.8 225.947 48.8C226.28 48.8 226.58 49 226.847 49.4C227.18 49.7333 227.347 50.1667 227.347 50.7C227.347 51.3 227.18 51.8 226.847 52.2C225.847 53.6 224.447 55.1667 222.647 56.9C220.914 58.5667 219.38 59.9 218.047 60.9C217.18 61.5667 216.014 62.2333 214.547 62.9C213.147 63.5667 211.847 63.9 210.647 63.9ZM229.204 66.7C226.937 66.7 225.337 66.0667 224.404 64.8C223.471 63.4667 223.004 61.8333 223.004 59.9C223.004 58.3 223.237 56.5667 223.704 54.7C224.237 52.7667 224.904 50.8667 225.704 49C225.771 46.4 226.471 43.8333 227.804 41.3C229.204 38.7667 231.071 36.6667 233.404 35C235.804 33.3333 238.604 32.5 241.804 32.5C244.937 32.5 247.104 33.4 248.304 35.2C249.571 37 250.204 39.1333 250.204 41.6C250.204 43.0667 250.037 44.5667 249.704 46.1C249.371 47.5667 248.937 48.9667 248.404 50.3C247.871 51.6333 247.204 53 246.404 54.4C245.604 55.7333 244.704 57.0667 243.704 58.4C245.704 58.0667 247.437 57.4333 248.904 56.5C250.437 55.5 251.971 54.1333 253.504 52.4C255.037 50.6667 256.837 48.4667 258.904 45.8C259.304 45.3333 259.737 45.1 260.204 45.1C260.737 45.1 261.171 45.2667 261.504 45.6C261.904 45.9333 262.104 46.3667 262.104 46.9C262.104 47.3 261.971 47.6667 261.704 48C259.771 50.6667 257.804 53.0667 255.804 55.2C253.871 57.3333 251.671 59 249.204 60.2C246.737 61.4 243.771 62 240.304 62C238.704 63.4 236.971 64.5333 235.104 65.4C233.237 66.2667 231.271 66.7 229.204 66.7ZM235.004 40.8C234.204 41.4 233.237 42.6 232.104 44.4C230.971 46.2 229.937 48.1667 229.004 50.3C229.137 52.3667 229.971 54.2333 231.504 55.9C233.104 57.5 235.537 58.4 238.804 58.6C241.204 56.2667 243.137 53.5333 244.604 50.4C246.071 47.2 246.804 44.3333 246.804 41.8C246.804 40.0667 246.404 38.6667 245.604 37.6C244.804 36.5333 243.537 36 241.804 36C240.604 36 239.437 36.2 238.304 36.6C237.171 37 236.137 37.5333 235.204 38.2C235.537 38.5333 235.704 38.9333 235.704 39.4C235.704 39.9333 235.471 40.4 235.004 40.8ZM226.504 59.7C226.504 60.7667 226.704 61.6333 227.104 62.3C227.571 62.9 228.271 63.2 229.204 63.2C231.137 63.2 233.104 62.6 235.104 61.4C233.171 60.9333 231.537 60.2 230.204 59.2C228.871 58.1333 227.837 56.9333 227.104 55.6C226.704 57.2 226.504 58.5667 226.504 59.7ZM255.042 67.3C254.576 67.3 254.142 67.1333 253.742 66.8C253.342 66.4667 253.142 66.0667 253.142 65.6C253.142 65.4667 253.209 65.2 253.342 64.8C254.676 61.9333 255.976 59.3333 257.242 57C258.576 54.6 259.942 52.2667 261.342 50C261.942 49.0667 262.609 47.8667 263.342 46.4C264.142 44.8667 264.909 43.2333 265.642 41.5C266.376 39.7 266.976 38 267.442 36.4C267.976 34.8 268.242 33.5 268.242 32.5C268.242 31.9667 268.209 31.6 268.142 31.4C268.076 31.3333 268.042 31.2 268.042 31C268.042 30.4667 268.276 30.0333 268.742 29.7C269.276 29.3 269.776 29.1 270.242 29.1C270.776 29.1 271.276 29.3667 271.742 29.9C272.209 30.3667 272.442 31.2 272.442 32.4C272.442 33.4 272.209 34.7333 271.742 36.4C271.342 38 270.642 39.9333 269.642 42.2C269.109 43.3333 268.609 44.4 268.142 45.4C267.676 46.3333 267.209 47.2333 266.742 48.1C269.342 45.3667 272.009 42.9333 274.742 40.8C277.476 38.6 279.909 36.8667 282.042 35.6C284.176 34.3333 285.609 33.7 286.342 33.7C287.142 33.7 287.709 33.9333 288.042 34.4C288.376 34.8667 288.542 35.4 288.542 36C288.542 36.8667 288.276 37.8667 287.742 39C287.276 40.0667 286.776 41.0333 286.242 41.9C285.709 42.7667 285.342 43.3667 285.142 43.7C284.409 44.8333 283.409 46.5333 282.142 48.8C280.876 51.0667 279.809 53.2667 278.942 55.4C278.676 56.1333 278.409 56.9 278.142 57.7C277.942 58.4333 277.842 59.0667 277.842 59.6C277.842 60.4667 278.209 60.9 278.942 60.9C279.609 60.9 280.576 60.5667 281.842 59.9C283.442 59.0333 284.909 57.9333 286.242 56.6C287.642 55.2 288.842 54 289.842 53C289.909 52.9333 290.209 52.6 290.742 52C291.342 51.4 291.909 50.8 292.442 50.2C293.042 49.6 293.342 49.3 293.342 49.3C293.609 48.9667 293.942 48.8 294.342 48.8C294.676 48.8 294.976 49 295.242 49.4C295.576 49.7333 295.742 50.1667 295.742 50.7C295.742 51.3 295.576 51.8 295.242 52.2C294.242 53.6 292.876 55.1333 291.142 56.8C289.409 58.4667 287.876 59.8333 286.542 60.9C285.142 61.9667 283.709 62.8333 282.242 63.5C280.842 64.1 279.442 64.4 278.042 64.4C276.842 64.4 275.842 64.1667 275.042 63.7C274.242 63.2333 273.842 62 273.842 60C273.842 57.4667 274.476 54.9667 275.742 52.5C277.076 50.0333 278.542 47.6 280.142 45.2C281.809 42.8 283.176 40.5333 284.242 38.4C282.576 39.4 280.342 40.9333 277.542 43C274.809 45.0667 271.909 47.5 268.842 50.3C265.842 53.0333 263.109 56.0333 260.642 59.3C260.176 60.1667 259.676 61.1 259.142 62.1C258.609 63.1 258.076 64.2 257.542 65.4C256.942 66.6667 256.109 67.3 255.042 67.3Z" fill="currentColor" />
</svg>
