<svg viewBox="0 0 35 27" xmlns="http://www.w3.org/2000/svg">
	<path d="M21.6539 25.995C19.9739 25.995 18.1655 25.715 16.2289 25.155C15.5522 24.945 14.8872 24.7117 14.2339 24.455C13.5805 24.1983 12.9272 23.93 12.2739 23.65C11.4339 24.28 10.4072 24.805 9.19387 25.225C7.98053 25.645 6.82553 25.855 5.72887 25.855C4.30553 25.855 3.2672 25.54 2.61387 24.91C1.98387 24.28 1.66887 23.58 1.66887 22.81C1.66887 22.0167 1.98387 21.2817 2.61387 20.605C3.24387 19.9283 4.1072 19.59 5.20387 19.59C6.09053 19.59 7.00053 19.8117 7.93387 20.255C8.8672 20.6983 9.7422 21.1067 10.5589 21.48C10.7922 21.5967 11.0372 21.7133 11.2939 21.83C11.5505 21.9467 11.8072 22.0633 12.0639 22.18C12.8339 21.5033 13.6622 20.605 14.5489 19.485C15.4355 18.365 16.3572 17.1283 17.3139 15.775C18.2705 14.4217 19.2389 13.045 20.2189 11.645C21.2222 10.245 22.2255 8.90333 23.2289 7.62C24.2322 6.33667 25.2355 5.21667 26.2389 4.26C25.5389 3.98 24.7922 3.77 23.9989 3.63C23.2055 3.46667 22.3539 3.385 21.4439 3.385C18.9939 3.385 16.8705 3.63 15.0739 4.12C13.3005 4.58667 11.8072 5.205 10.5939 5.975C9.40387 6.745 8.45887 7.57333 7.75887 8.46C7.0822 9.32333 6.61553 10.14 6.35887 10.91C6.26553 11.2133 6.19553 11.4933 6.14887 11.75C6.1022 11.9833 6.07887 12.2167 6.07887 12.45C6.07887 13.2433 6.32387 13.8383 6.81387 14.235C7.30387 14.6317 7.93387 14.83 8.70387 14.83C9.4972 14.83 10.3839 14.6083 11.3639 14.165C12.3439 13.7217 13.3472 13.0333 14.3739 12.1C15.4005 11.1433 16.3455 9.895 17.2089 8.355C17.3255 8.145 17.5005 8.04 17.7339 8.04C17.9205 8.04 18.0722 8.09833 18.1889 8.215C18.3289 8.30833 18.3989 8.44833 18.3989 8.635C18.3989 8.75167 18.3639 8.86833 18.2939 8.985C17.3605 10.6183 16.3222 11.96 15.1789 13.01C14.0589 14.06 12.9272 14.8417 11.7839 15.355C10.6639 15.845 9.61387 16.09 8.63387 16.09C7.5372 16.09 6.6272 15.7867 5.90387 15.18C5.18053 14.55 4.81887 13.6633 4.81887 12.52C4.81887 11.89 4.93553 11.225 5.16887 10.525C5.4722 9.56833 6.00887 8.6 6.77887 7.62C7.5722 6.64 8.6222 5.74167 9.92887 4.925C11.2589 4.085 12.8689 3.40833 14.7589 2.895C16.6722 2.38167 18.9005 2.125 21.4439 2.125C22.5639 2.125 23.6022 2.23 24.5589 2.44C25.5389 2.65 26.4372 2.94167 27.2539 3.315C27.9539 2.70833 28.6422 2.23 29.3189 1.88C30.0189 1.53 30.6839 1.355 31.3139 1.355C31.5239 1.355 31.6755 1.425 31.7689 1.565C31.8622 1.68167 31.9089 1.82167 31.9089 1.985C31.9089 2.14833 31.8622 2.3 31.7689 2.44C31.6755 2.55667 31.5239 2.615 31.3139 2.615C30.5672 2.615 29.6105 3.05833 28.4439 3.945C30.2872 5.065 31.6639 6.55833 32.5739 8.425C33.5072 10.2917 33.9739 12.2167 33.9739 14.2C33.9739 16.0433 33.6005 17.7817 32.8539 19.415C31.9905 21.3517 30.5789 22.9267 28.6189 24.14C26.6589 25.3767 24.3372 25.995 21.6539 25.995ZM16.6139 23.965C18.3639 24.4783 20.0322 24.735 21.6189 24.735C24.1155 24.735 26.2272 24.1867 27.9539 23.09C29.7039 21.97 30.9639 20.5583 31.7339 18.855C32.4105 17.385 32.7489 15.8333 32.7489 14.2C32.7489 12.3567 32.3055 10.5833 31.4189 8.88C30.5322 7.15333 29.2022 5.8 27.4289 4.82C26.7055 5.45 25.9705 6.19667 25.2239 7.06C24.5005 7.92333 23.7889 8.85667 23.0889 9.86C22.5755 10.6067 21.9222 11.5517 21.1289 12.695C20.3355 13.815 19.4839 15.0167 18.5739 16.3C17.6639 17.56 16.7422 18.7617 15.8089 19.905C14.8989 21.0483 14.0705 21.9933 13.3239 22.74C13.8605 22.9733 14.3972 23.195 14.9339 23.405C15.4939 23.615 16.0539 23.8017 16.6139 23.965ZM2.92887 22.775C2.92887 23.2183 3.13887 23.6267 3.55887 24C4.0022 24.3967 4.71387 24.595 5.69387 24.595C6.53387 24.595 7.4322 24.455 8.38887 24.175C9.34553 23.895 10.1972 23.5217 10.9439 23.055C10.3839 22.7983 9.82387 22.5417 9.26387 22.285C8.70387 22.0283 8.1322 21.7717 7.54887 21.515C7.19887 21.3517 6.89553 21.2233 6.63887 21.13C6.3822 21.0133 6.16053 20.9433 5.97387 20.92C5.8572 20.8733 5.74053 20.85 5.62387 20.85C5.5072 20.85 5.39053 20.85 5.27387 20.85C4.55053 20.85 3.97887 21.06 3.55887 21.48C3.13887 21.8767 2.92887 22.3083 2.92887 22.775Z" fill="currentColor" stroke="currentColor" />
</svg>
